# xmcd
#
# Track frame offsets: 
#        150
#        18017
#        45052
#        71007
#
# Disc length: 1185 seconds
#
# Revision: 4
# Processed by: cddbd v1.5.2PL0 Copyright (c) Steve Scherf et al.
# Submitted via: ExactAudioCopy v1.3
#
DISCID=21049f04
DTITLE=Shabba Ranks feat. Maxi Priest - Housecall
DYEAR=1993
DGENRE=Reggae
TTITLE0=Housecall (7'' Remix)
TTITLE1=Housecall (Morales Long Remix)
TTITLE2=Shabba Ranks with Coca Tea And Home T - Pirates Anthem
TTITLE3=Shabba Ranks - Trailor Load A Girls (7'' Version)
EXTD=ID3G: 17
EXTT0=
EXTT1=
EXTT2=
EXTT3=
PLAYORDER=
